# xmcd
#
# Track frame offsets: 
#        150
#        30753
#        45993
#        70827
#        84898
#        100369
#        118139
#        136422
#        154320
#        167018
#        182863
#        197436
#
# Disc length: 2811 seconds
#
# Revision: 0
# Processed by: cddbd v1.5.2PL0 Copyright (c) Steve Scherf et al.
# Submitted via: ExactAudioCopy v0.99pb4
#
DISCID=930af90c
DTITLE=Joe Tex - Bumps and Bruises [Expanded Edition]
DYEAR=1977
DGENRE=Soul
TTITLE0=Ain't Gonna Bump No More (With No Big Fat Woman) [12"/LP Versi
TTITLE0=on]
TTITLE1=Leaving You Dinner
TTITLE2=Be Cool (Willie Is Dancing With A Sissy)
TTITLE3=I Mess Up Everything I Get My Hands On
TTITLE4=We Held On
TTITLE5=I Almost Got To Heaven Once
TTITLE6=Hungry For Your Love
TTITLE7=Jump Bad
TTITLE8=There's Something Wrong
TTITLE9=Ain't Gonna Bump No More (With No Big Fat Woman) [Single Versi
TTITLE9=on]
TTITLE10=Hungry For Your Love [Single Version]
TTITLE11=We Held On [Single Version]
EXTD=
EXTT0=
EXTT1=
EXTT2=
EXTT3=
EXTT4=
EXTT5=
EXTT6=
EXTT7=
EXTT8=
EXTT9=
EXTT10=
EXTT11=
PLAYORDER=
